<?xml version="1.0" encoding="UTF-8"?><svg id="Layer_2" xmlns="http://www.w3.org/2000/svg" viewBox="0 0 328.18 131.81"><defs><style>.cls-1{fill:none;}.cls-2{fill:#003469;}.cls-3{fill:#00bff2;}.cls-4{fill:#0082c9;}.cls-5{fill:#fff;}</style></defs><g id="Layer_1-2"><g><g><path class="cls-2" d="M154.23,3.83h4.96v14.78h.05c1.25-3.24,4.06-10.28,5.86-14.78h5.62l-5.96,12.72,6.31,20.01h-5.5l-4.27-14.74-2.11,4.41v10.33h-4.96V3.83Z"/><path class="cls-2" d="M185.05,21.61h-7.19v10.31h8.29l-.64,4.64h-12.7V3.83h12.64v4.69h-7.59v8.45h7.19v4.64Z"/><path class="cls-2" d="M188.58,36.56V3.83h5.85c1.3,4.62,5.21,20.77,5.56,22.51h.05c-.23-4.03-.25-8.63-.25-14.01V3.83h4.66V36.56h-5.62c-1.03-3.91-5.39-21.86-5.72-23.24h-.05c.24,3.96,.22,8.4,.22,14.29v8.95h-4.7Z"/><path class="cls-2" d="M211.96,8.52h-5.25V3.83h15.59v4.69h-5.29v28.04h-5.05V8.52Z"/><path class="cls-2" d="M236.74,21.61h-7.19v10.31h8.29l-.64,4.64h-12.7V3.83h12.64v4.69h-7.59v8.45h7.19v4.64Z"/><path class="cls-2" d="M254.91,26.77v1.28c0,3.74-.62,8.99-7.54,8.99-6.06,0-7.35-3.79-7.35-8.78V11.75c0-5.05,2.29-8.4,7.43-8.4,6.14,0,7.31,4.07,7.31,8.6v1.47h-5.06v-2.06c0-2.18-.51-3.41-2.26-3.41s-2.28,1.19-2.28,3.43V28.69c0,2.13,.42,3.79,2.34,3.79s2.31-1.44,2.31-3.88v-1.83h5.1Z"/><path class="cls-2" d="M257.86,3.83h5.05v12.92h5.43V3.83h5.05V36.56h-5.05v-15.17h-5.43v15.17h-5.05V3.83Z"/><path class="cls-2" d="M159.28,68.92v14.64h-5.05V50.83h6.99c4.98,0,7.92,2,7.92,7.89v1.25c0,5.03-2.06,6.31-3.33,6.83,1.91,.9,3,2.27,3,6.71,0,2.75-.05,8.07,.3,10.06h-4.88c-.44-1.98-.34-7.35-.34-9.73,0-3.99-.51-4.91-3.44-4.91h-1.17Zm0-4.17h1.16c2.67,0,3.65-1.01,3.65-4.57v-1.12c0-2.53-.52-4.07-3.38-4.07h-1.43v9.76Z"/><path class="cls-2" d="M185.1,68.61h-7.19v10.31h8.29l-.64,4.64h-12.7V50.83h12.64v4.69h-7.59v8.45h7.19v4.64Z"/><path class="cls-2" d="M193.04,73.93v2.02c0,2.44,.73,3.79,2.65,3.79s2.48-1.86,2.48-3.99c0-3.52-.76-4.61-4.27-7.38-3.52-2.78-5.4-4.56-5.4-9.4,0-4.31,1.31-8.67,7.21-8.66,6.04,0,6.97,4.31,6.97,7.86v1.75h-5v-1.61c0-2.28-.38-3.66-2.06-3.66s-2.07,1.43-2.07,3.59c0,2.31,.44,3.45,3.32,5.55,4.9,3.62,6.4,5.73,6.4,11.2,0,4.64-1.63,9.04-7.73,9.04s-7.53-3.86-7.53-8.17v-1.94h5.05Z"/><path class="cls-2" d="M211.42,50.83v32.73h-5.05V50.83h5.05Z"/><path class="cls-2" d="M215.87,50.83h7c6.94,0,8.63,3.6,8.63,9.67v12.55c0,5-.86,10.51-8.64,10.51h-6.99V50.83Zm5.05,28.43h1.62c3.32,0,3.83-2.14,3.83-5.52v-13.63c0-3.01-.53-4.93-3.86-4.93h-1.59v24.09Z"/><path class="cls-2" d="M247.48,68.61h-7.19v10.31h8.29l-.64,4.64h-12.7V50.83h12.64v4.69h-7.59v8.45h7.19v4.64Z"/><path class="cls-2" d="M251.01,83.56V50.83h5.85c1.3,4.62,5.21,20.77,5.56,22.51h.05c-.23-4.03-.25-8.63-.25-14.01v-8.5h4.66v32.73h-5.62c-1.03-3.91-5.39-21.86-5.72-23.24h-.05c.24,3.96,.22,8.4,.22,14.29v8.95h-4.7Z"/><path class="cls-2" d="M274.39,55.52h-5.25v-4.69h15.59v4.69h-5.29v28.04h-5.05v-28.04Z"/><path class="cls-2" d="M292.02,50.83v32.73h-5.05V50.83h5.05Z"/><path class="cls-2" d="M300.88,74.8l-1.15,8.75h-5.13l5.27-32.73h7.13l5.47,32.73h-5.28l-1.29-8.75h-5.03Zm4.44-4.64c-.75-5.56-1.46-10.83-1.84-14.54h-.18c-.14,2.7-1.12,9.71-1.78,14.54h3.8Z"/><path class="cls-2" d="M314.9,50.83h5.05v28.22h8.23l-.43,4.51h-12.85V50.83Z"/><path class="cls-2" d="M168.43,120.77v1.28c0,3.74-.62,8.99-7.54,8.99-6.06,0-7.35-3.79-7.35-8.78v-16.5c0-5.05,2.29-8.4,7.43-8.4,6.14,0,7.31,4.07,7.31,8.6v1.47h-5.06v-2.06c0-2.18-.51-3.41-2.26-3.41s-2.28,1.19-2.28,3.43v17.31c0,2.13,.42,3.79,2.34,3.79s2.31-1.44,2.31-3.88v-1.83h5.1Z"/><path class="cls-2" d="M187.15,106.52v15.28c0,6.27-2.66,9.24-8.21,9.24s-7.71-3.04-7.71-9.15v-15.41c0-6.27,3.16-9.13,8.03-9.13s7.89,2.87,7.89,9.17Zm-10.78-.49v16.46c0,2.72,.98,4,2.8,4,1.96,0,2.84-1.19,2.84-4.07v-16.43c0-2.6-.8-4.03-2.85-4.03-1.82,0-2.8,1.3-2.8,4.07Z"/><path class="cls-2" d="M190.88,97.83h5.05v28.22h8.23l-.43,4.51h-12.85v-32.73Z"/><path class="cls-2" d="M206.22,97.83h5.05v28.22h8.23l-.43,4.51h-12.85v-32.73Z"/><path class="cls-2" d="M233.76,115.61h-7.19v10.31h8.29l-.64,4.64h-12.7v-32.73h12.64v4.69h-7.59v8.45h7.19v4.64Z"/><path class="cls-2" d="M252.53,130.56h-3.93c-.14-.58-.23-1.76-.28-2.46-.91,2.18-2.81,2.94-4.92,2.94-4.82,0-6.37-3.49-6.37-9.03v-15.37c0-5.35,2.08-9.28,7.77-9.28,6.87,0,7.6,5.05,7.6,8.57v1.06h-5.05v-1.31c0-1.73-.25-3.72-2.56-3.72-1.84,0-2.62,1.27-2.62,3.88v16.74c0,2.62,.76,3.99,2.58,3.99,2.19,0,2.72-1.83,2.72-5.2v-4.78h-2.86v-4.34h7.92v18.31Z"/><path class="cls-2" d="M268.84,115.61h-7.19v10.31h8.29l-.64,4.64h-12.7v-32.73h12.64v4.69h-7.59v8.45h7.19v4.64Z"/></g><g><rect class="cls-3" x="0" y="0" width="131.95" height="131.81"/><g><polygon class="cls-1" points="0 65.91 33.02 98.93 33.02 65.91 33.02 32.89 0 65.91"/><path class="cls-2" d="M131.95,0c-14.86,0-28.56,4.92-39.58,13.21,4.12,5.5,6.57,12.34,6.57,19.74h0c0,18.18-14.72,32.92-32.89,32.95h0c0,36.4,29.51,65.91,65.91,65.91h0V0h0Z"/><polygon class="cls-4" points="0 65.91 0 131.81 33.02 131.81 33.02 98.93 0 65.91"/><polygon class="cls-4" points="33.02 0 0 0 0 65.91 33.02 32.89 33.02 0"/><polygon class="cls-5" points="65.91 131.81 98.93 131.81 33.02 65.91 33.02 98.93 65.91 131.81"/><polygon class="cls-2" points="33.02 131.81 65.91 131.81 33.02 98.93 33.02 131.81"/><path class="cls-5" d="M92.36,13.21C86.35,5.19,76.77,0,65.97,0h-.07L33.02,32.89v33.02h32.95s.04,0,.07,0c0-21.54,10.34-40.67,26.32-52.69Z"/><path class="cls-3" d="M98.93,32.95h0c0-7.4-2.44-14.24-6.57-19.74-15.98,12.03-26.32,31.15-26.32,52.69,18.17-.04,32.89-14.77,32.89-32.95Z"/><polygon class="cls-2" points="65.91 0 33.02 0 33.02 32.89 65.91 0"/></g></g></g></g></svg>